<svg width="3098" height="1194" viewBox="0 0 3098 1194" fill="none" xmlns="http://www.w3.org/2000/svg">
<g clip-path="url(#clip0_941_229693)">
<path d="M1408.2 1112.66C1369.24 1063.89 1347.12 990.946 1341.85 893.826C1336.61 797.266 1350.71 722.626 1384.17 669.906C1417.62 617.186 1468.64 588.969 1537.23 585.256C1605.79 581.529 1659.56 604.059 1698.54 652.846C1737.51 701.633 1759.61 774.299 1764.85 870.846C1770.1 967.419 1756 1042.19 1722.55 1095.17C1689.09 1148.14 1638.09 1176.5 1569.55 1180.24C1500.94 1183.98 1447.16 1161.46 1408.2 1112.66Z" fill="white"/>
<path d="M1408.2 1112.66C1369.24 1063.89 1347.12 990.946 1341.85 893.826C1336.61 797.266 1350.71 722.626 1384.17 669.906C1417.62 617.186 1468.64 588.969 1537.23 585.256C1605.79 581.529 1659.56 604.059 1698.54 652.846C1737.51 701.633 1759.61 774.299 1764.85 870.846C1770.1 967.419 1756 1042.19 1722.55 1095.17C1689.09 1148.14 1638.09 1176.5 1569.55 1180.24C1500.94 1183.98 1447.16 1161.46 1408.2 1112.66Z" stroke="#FF8800" stroke-width="10" stroke-miterlimit="10"/>
<path d="M1643.72 1041.29C1658.86 1006.09 1664.41 951.181 1660.37 876.555C1656.29 801.395 1644.83 747.395 1625.99 714.555C1607.15 681.715 1579.06 666.328 1541.72 668.394C1504.39 670.394 1478.15 688.875 1463.01 723.835C1447.87 758.795 1442.32 813.571 1446.35 888.164C1450.4 962.784 1461.86 1016.78 1480.73 1050.16C1499.6 1083.54 1527.69 1099.21 1564.99 1097.16C1602.3 1095.13 1628.55 1076.51 1643.72 1041.29Z" fill="#FFF6E5"/>
<path d="M1643.72 1041.29C1658.86 1006.09 1664.41 951.181 1660.37 876.555C1656.29 801.395 1644.83 747.395 1625.99 714.555C1607.15 681.715 1579.06 666.328 1541.72 668.394C1504.39 670.394 1478.15 688.875 1463.01 723.835C1447.87 758.795 1442.32 813.571 1446.35 888.164C1450.4 962.784 1461.86 1016.78 1480.73 1050.16C1499.6 1083.54 1527.69 1099.21 1564.99 1097.16C1602.3 1095.13 1628.55 1076.51 1643.72 1041.29Z" stroke="#FF8800" stroke-width="10" stroke-miterlimit="10"/>
<path d="M1881.11 885.375H1199.16V894.465H1881.11V885.375Z" fill="#FF8800"/>
<path d="M2338.63 887.68H2255.42C2255.01 887.68 2254.67 888.015 2254.67 888.43V893.75C2254.67 894.164 2255.01 894.5 2255.42 894.5H2338.63C2339.05 894.5 2339.38 894.164 2339.38 893.75V888.43C2339.38 888.015 2339.05 887.68 2338.63 887.68Z" fill="#FF8800"/>
<path d="M824.14 887.68H740.93C740.515 887.68 740.18 888.015 740.18 888.43V893.75C740.18 894.164 740.515 894.5 740.93 894.5H824.14C824.554 894.5 824.89 894.164 824.89 893.75V888.43C824.89 888.015 824.554 887.68 824.14 887.68Z" fill="#FF8800"/>
<path d="M2265.79 1028.98H2182.08C2181.8 1028.98 2181.58 1029.21 2181.58 1029.48V1033.03C2181.58 1033.31 2181.8 1033.53 2182.08 1033.53H2265.79C2266.06 1033.53 2266.29 1033.31 2266.29 1033.03V1029.48C2266.29 1029.21 2266.06 1028.98 2265.79 1028.98Z" fill="#C4CEFE"/>
<path d="M864.902 304.315C880.792 304.315 894.602 292.775 896.752 277.035C897.138 274.171 897.331 271.285 897.332 268.395C897.332 260.061 895.69 251.809 892.501 244.11C889.312 236.41 884.637 229.415 878.745 223.522C872.852 217.629 865.856 212.955 858.157 209.765C850.457 206.576 842.205 204.935 833.872 204.935C832.432 204.935 831.012 205.005 829.592 205.095C828.098 187.791 819.982 171.732 806.938 160.265C793.893 148.798 776.926 142.809 759.574 143.545C742.222 144.281 725.823 151.687 713.797 164.217C701.77 176.748 695.045 193.437 695.022 210.805C695.022 212.455 695.102 214.085 695.222 215.705C685.323 210.186 674.192 207.251 662.858 207.174C651.524 207.096 640.354 209.877 630.38 215.26C620.406 220.642 611.95 228.453 605.795 237.969C599.639 247.486 595.982 258.401 595.162 269.705C595.162 269.975 595.162 270.245 595.162 270.515C594.932 274.879 595.595 279.244 597.11 283.343C598.625 287.442 600.961 291.188 603.975 294.353C606.988 297.518 610.615 300.035 614.635 301.75C618.655 303.464 622.982 304.34 627.352 304.325L864.902 304.315Z" fill="#FFF6E5"/>
<path d="M2523.72 459.935C2573.9 459.935 2576.72 384.415 2526.56 381.935C2525.19 381.865 2523.81 381.835 2522.43 381.835C2513.72 381.826 2505.07 383.176 2496.78 385.835C2493.44 365.432 2482.88 346.909 2467.02 333.651C2451.15 320.394 2431.05 313.287 2410.38 313.629C2389.71 313.971 2369.85 321.74 2354.43 335.515C2339.02 349.29 2329.07 368.153 2326.42 388.655C2309.55 380.615 2290.39 378.753 2272.3 383.395C2228.42 394.695 2237.63 459.985 2282.94 459.985L2523.72 459.935Z" fill="#FFF6E5"/>
<path d="M2085.85 146.085C2136.02 146.085 2138.79 70.5854 2088.69 68.1454C2087.32 68.0854 2085.94 68.0454 2084.55 68.0454C2075.85 68.0359 2067.21 69.3855 2058.92 72.0454C2055.56 51.689 2044.99 33.218 2029.16 19.9965C2013.32 6.77499 1993.25 -0.317451 1972.62 0.0109113C1951.99 0.339273 1932.17 8.06659 1916.76 21.7855C1901.35 35.5044 1891.38 54.3022 1888.66 74.7554C1871.8 66.7086 1852.65 64.85 1834.56 69.5054C1790.69 80.7954 1799.9 146.065 1845.19 146.065L2085.85 146.085Z" fill="#FFF6E5"/>
<path d="M2128.5 317.2C2129.51 279.802 2114.94 249.068 2095.96 248.555C2076.97 248.041 2060.76 277.941 2059.75 315.339C2058.73 352.738 2073.31 383.471 2092.29 383.985C2111.28 384.499 2127.49 354.598 2128.5 317.2Z" fill="#FFF6E5"/>
<path d="M2263.64 131.654C2264.1 114.732 1757.92 87.3081 1133.06 70.3999C508.206 53.4918 1.28694 53.5024 0.829062 70.4237C0.371184 87.345 506.548 114.769 1131.41 131.677C1756.26 148.586 2263.18 148.575 2263.64 131.654Z" fill="#FFF6E5"/>
<path d="M898.351 498.754C899.159 468.886 887.873 444.351 873.144 443.952C858.414 443.553 845.818 467.443 845.01 497.31C844.202 527.178 855.488 551.714 870.217 552.112C884.947 552.511 897.543 528.621 898.351 498.754Z" fill="#FFF6E5"/>
<path d="M598.898 428.336C600.029 386.549 588.226 352.33 572.536 351.905C556.845 351.481 543.209 385.011 542.079 426.799C540.948 468.586 552.751 502.805 568.441 503.23C584.131 503.654 597.767 470.123 598.898 428.336Z" fill="#FFF6E5"/>
<path d="M2434.29 636.022C2435.51 591.16 2421.67 554.391 2403.39 553.896C2385.11 553.401 2369.31 589.368 2368.1 634.231C2366.88 679.093 2380.72 715.862 2399 716.357C2417.28 716.851 2433.08 680.884 2434.29 636.022Z" fill="#FFF6E5"/>
<path d="M1423.12 514.435L1663.45 443.855C1664.52 443.541 1665.51 443.02 1666.38 442.321C1667.25 441.621 1667.97 440.757 1668.51 439.779C1669.04 438.8 1669.38 437.725 1669.5 436.616C1669.62 435.507 1669.52 434.385 1669.21 433.315L1571.12 99.3149C1570.8 98.2444 1570.28 97.2462 1569.58 96.3773C1568.88 95.5084 1568.02 94.7858 1567.04 94.2509C1566.06 93.7159 1564.99 93.3791 1563.88 93.2597C1562.77 93.1403 1561.65 93.2406 1560.58 93.5549L1396.03 141.885C1393.91 142.494 1392.12 143.9 1391.03 145.805L1336.62 240.805C1336.05 241.797 1335.68 242.894 1335.55 244.03C1335.42 245.166 1335.51 246.317 1335.84 247.415L1412.58 508.655C1412.89 509.727 1413.41 510.728 1414.11 511.599C1414.8 512.47 1415.67 513.195 1416.65 513.731C1417.63 514.268 1418.7 514.607 1419.81 514.728C1420.92 514.848 1422.04 514.749 1423.12 514.435Z" fill="white"/>
<path d="M1423.12 514.435L1663.45 443.855C1664.52 443.541 1665.51 443.02 1666.38 442.321C1667.25 441.621 1667.97 440.757 1668.51 439.779C1669.04 438.8 1669.38 437.725 1669.5 436.616C1669.62 435.507 1669.52 434.385 1669.21 433.315L1571.12 99.3149C1570.8 98.2444 1570.28 97.2462 1569.58 96.3773C1568.88 95.5084 1568.02 94.7858 1567.04 94.2509C1566.06 93.7159 1564.99 93.3791 1563.88 93.2597C1562.77 93.1403 1561.65 93.2406 1560.58 93.5549L1396.03 141.885C1393.91 142.494 1392.12 143.9 1391.03 145.805L1336.62 240.805C1336.05 241.797 1335.68 242.894 1335.55 244.03C1335.42 245.166 1335.51 246.317 1335.84 247.415L1412.58 508.655C1412.89 509.727 1413.41 510.728 1414.11 511.599C1414.8 512.47 1415.67 513.195 1416.65 513.731C1417.63 514.268 1418.7 514.607 1419.81 514.728C1420.92 514.848 1422.04 514.749 1423.12 514.435Z" stroke="#FF8800" stroke-width="8" stroke-linecap="round" stroke-linejoin="round"/>
<path d="M1394.88 147.047L1414.94 215.367C1415.62 217.676 1415.36 220.16 1414.21 222.276C1413.06 224.391 1411.12 225.967 1408.82 226.657L1337.4 247.957" fill="white"/>
<path d="M1394.88 147.047L1414.94 215.367C1415.62 217.676 1415.36 220.16 1414.21 222.276C1413.06 224.391 1411.12 225.967 1408.82 226.657L1337.4 247.957" stroke="#FF8800" stroke-width="8" stroke-linecap="round" stroke-linejoin="round"/>
<path d="M1441.36 403.357L1427.74 407.331C1426.68 407.64 1426.07 408.75 1426.38 409.811L1443.08 467.075C1443.39 468.135 1444.5 468.744 1445.56 468.435L1459.18 464.461C1460.25 464.152 1460.85 463.042 1460.54 461.981L1443.84 404.717C1443.53 403.657 1442.42 403.048 1441.36 403.357Z" fill="#FFF6E5"/>
<path d="M1516.32 400.436L1502.7 404.409C1501.64 404.718 1501.03 405.828 1501.34 406.889L1512.95 446.69C1513.26 447.751 1514.37 448.36 1515.43 448.05L1529.05 444.077C1530.11 443.768 1530.72 442.658 1530.41 441.597L1518.8 401.796C1518.49 400.735 1517.38 400.126 1516.32 400.436Z" fill="#FFF6E5"/>
<path d="M1546.5 367.859L1532.89 371.858C1531.83 372.17 1531.22 373.281 1531.53 374.341L1548.34 431.573C1548.66 432.633 1549.77 433.239 1550.83 432.928L1564.44 428.929C1565.5 428.617 1566.11 427.506 1565.8 426.446L1548.98 369.214C1548.67 368.154 1547.56 367.548 1546.5 367.859Z" fill="#FFF6E5"/>
<path d="M1471.6 370.914L1457.98 374.913C1456.92 375.224 1456.31 376.336 1456.63 377.395L1478.56 452.07C1478.87 453.13 1479.98 453.737 1481.04 453.426L1494.66 449.426C1495.72 449.115 1496.33 448.004 1496.01 446.944L1474.08 372.269C1473.77 371.209 1472.66 370.602 1471.6 370.914Z" fill="#FFF6E5"/>
<path d="M1391.07 283.517L1552.47 236.117" stroke="#FFF6E5" stroke-width="6" stroke-linecap="round" stroke-linejoin="round"/>
<path d="M1398.76 309.687L1560.16 262.297" stroke="#FFF6E5" stroke-width="6" stroke-linecap="round" stroke-linejoin="round"/>
<path d="M1406.44 335.859L1567.84 288.469" stroke="#FFF6E5" stroke-width="6" stroke-linecap="round" stroke-linejoin="round"/>
<path d="M1750.96 424.285L1756.96 411.545C1757.23 410.973 1757.38 410.351 1757.39 409.718C1757.41 409.086 1757.29 408.458 1757.05 407.873C1756.8 407.289 1756.44 406.762 1755.99 406.325C1755.53 405.888 1754.99 405.551 1754.39 405.335L1673.95 376.445L1670.42 382.815L1744.56 426.265C1745.11 426.584 1745.71 426.786 1746.34 426.858C1746.96 426.93 1747.6 426.871 1748.2 426.685C1748.8 426.499 1749.36 426.189 1749.83 425.776C1750.31 425.363 1750.69 424.855 1750.96 424.285Z" fill="#FF8800"/>
<path d="M1613.57 422.395C1649.56 422.395 1678.74 393.217 1678.74 357.225C1678.74 321.232 1649.56 292.055 1613.57 292.055C1577.58 292.055 1548.4 321.232 1548.4 357.225C1548.4 393.217 1577.58 422.395 1613.57 422.395Z" fill="#FFF6E5"/>
<path d="M1613.57 408.808C1642.06 408.808 1665.15 385.715 1665.15 357.228C1665.15 328.742 1642.06 305.648 1613.57 305.648C1585.09 305.648 1561.99 328.742 1561.99 357.228C1561.99 385.715 1585.09 408.808 1613.57 408.808Z" fill="white"/>
<path d="M1613.57 422.395C1649.56 422.395 1678.74 393.217 1678.74 357.225C1678.74 321.232 1649.56 292.055 1613.57 292.055C1577.58 292.055 1548.4 321.232 1548.4 357.225C1548.4 393.217 1577.58 422.395 1613.57 422.395Z" stroke="#FF8800" stroke-width="8" stroke-linecap="round" stroke-linejoin="round"/>
<path d="M1613.88 332.219L1613.49 364.039" stroke="#FF8800" stroke-width="8" stroke-linecap="round" stroke-linejoin="round"/>
<circle cx="1613.26" cy="382.227" r="4" fill="#FF8800"/>
<path d="M1613.26 382.243C1613.27 382.243 1613.28 382.234 1613.28 382.223C1613.28 382.212 1613.27 382.203 1613.26 382.203C1613.25 382.203 1613.24 382.212 1613.24 382.223C1613.24 382.234 1613.25 382.243 1613.26 382.243Z" stroke="#FF8800" stroke-width="8" stroke-linecap="round" stroke-linejoin="round"/>
<path d="M2305.79 877.563L2241.72 890.443L2267.44 1018.65L2130.17 1046.23L2104.41 918.003L1852.89 968.543L1832.89 869.083L1986.61 476.463L2151.82 443.273L2217.88 772.053L2282 759.173L2305.79 877.563ZM2044.79 621.293L1972.14 821.464L2080.62 799.653L2044.79 621.293Z" fill="#FF8800"/>
<path d="M1247.87 943.956L1183.36 933.196L1161.86 1062.2L1023.75 1039.2L1045.26 910.196L792.195 868.016L808.875 767.956L1092.13 455.656L1258.35 483.366L1203.21 814.156L1267.72 824.916L1247.87 943.956ZM1095.02 611.656L955.945 772.916L1065.1 791.106L1095.02 611.656Z" fill="#FF8800"/>
<path d="M2817.08 894.484H452.992V1194.48H2817.08V894.484Z" fill="white"/>
<path d="M850.296 1035.22H766.586C766.31 1035.22 766.086 1035.44 766.086 1035.72V1039.27C766.086 1039.54 766.31 1039.77 766.586 1039.77H850.296C850.572 1039.77 850.796 1039.54 850.796 1039.27V1035.72C850.796 1035.44 850.572 1035.22 850.296 1035.22Z" fill="#FFF6E5"/>
<path d="M1080.16 1035.22H996.445C996.169 1035.22 995.945 1035.44 995.945 1035.72V1039.27C995.945 1039.54 996.169 1039.77 996.445 1039.77H1080.16C1080.43 1039.77 1080.66 1039.54 1080.66 1039.27V1035.72C1080.66 1035.44 1080.43 1035.22 1080.16 1035.22Z" fill="#FFF6E5"/>
<path d="M1289.36 981.234H1205.65C1205.37 981.234 1205.15 981.458 1205.15 981.734V985.284C1205.15 985.561 1205.37 985.784 1205.65 985.784H1289.36C1289.63 985.784 1289.86 985.561 1289.86 985.284V981.734C1289.86 981.458 1289.63 981.234 1289.36 981.234Z" fill="#FFF6E5"/>
<path d="M1408.34 1040.94H1324.62C1324.35 1040.94 1324.12 1041.16 1324.12 1041.44V1044.99C1324.12 1045.26 1324.35 1045.49 1324.62 1045.49H1408.34C1408.61 1045.49 1408.84 1045.26 1408.84 1044.99V1041.44C1408.84 1041.16 1408.61 1040.94 1408.34 1040.94Z" fill="#FFF6E5"/>
<path d="M1701.9 1040.94H1618.19C1617.91 1040.94 1617.69 1041.16 1617.69 1041.44V1044.99C1617.69 1045.26 1617.91 1045.49 1618.19 1045.49H1701.9C1702.17 1045.49 1702.4 1045.26 1702.4 1044.99V1041.44C1702.4 1041.16 1702.17 1040.94 1701.9 1040.94Z" fill="#FFF6E5"/>
<path d="M2030.32 1037.55H1946.61C1946.33 1037.55 1946.11 1037.78 1946.11 1038.05V1041.6C1946.11 1041.88 1946.33 1042.1 1946.61 1042.1H2030.32C2030.6 1042.1 2030.82 1041.88 2030.82 1041.6V1038.05C2030.82 1037.78 2030.6 1037.55 2030.32 1037.55Z" fill="#FFF6E5"/>
<path d="M986.999 972.484H903.289C903.013 972.484 902.789 972.708 902.789 972.984V976.534C902.789 976.811 903.013 977.034 903.289 977.034H986.999C987.275 977.034 987.499 976.811 987.499 976.534V972.984C987.499 972.708 987.275 972.484 986.999 972.484Z" fill="#FFF6E5"/>
<path d="M1571.49 970.266H1487.78C1487.51 970.266 1487.28 970.489 1487.28 970.766V974.316C1487.28 974.592 1487.51 974.816 1487.78 974.816H1571.49C1571.77 974.816 1571.99 974.592 1571.99 974.316V970.766C1571.99 970.489 1571.77 970.266 1571.49 970.266Z" fill="#FFF6E5"/>
<path d="M2167.01 969.914H2083.3C2083.02 969.914 2082.8 970.138 2082.8 970.414V973.964C2082.8 974.24 2083.02 974.464 2083.3 974.464H2167.01C2167.28 974.464 2167.51 974.24 2167.51 973.964V970.414C2167.51 970.138 2167.28 969.914 2167.01 969.914Z" fill="#FFF6E5"/>
<path d="M1873.89 948.734H1790.18C1789.9 948.734 1789.68 948.958 1789.68 949.234V952.784C1789.68 953.061 1789.9 953.284 1790.18 953.284H1873.89C1874.17 953.284 1874.39 953.061 1874.39 952.784V949.234C1874.39 948.958 1874.17 948.734 1873.89 948.734Z" fill="#FFF6E5"/>
</g>
<defs>
<clipPath id="clip0_941_229693">
<rect width="3098" height="1194" fill="white"/>
</clipPath>
</defs>
</svg>
