<svg width="2348" height="2348" viewBox="0 0 2348 2348" fill="none" xmlns="http://www.w3.org/2000/svg">
<rect width="2348" height="2348" rx="300" fill="white"/>
<path d="M1877.08 960.547C1877.08 1030.36 1821.31 1087.01 1751.97 1087.63L1452.26 1087.56L1450.42 1173.66H1762.49C1849.38 1173.66 1919.81 1097.5 1919.81 1003.56C1919.81 909.614 1845.49 833.066 1758.61 833.066C1756.56 833.067 1752.13 833.069 1750.84 833.069C1820.56 833.069 1877.08 890.359 1877.08 960.547Z" fill="#1C125F"/>
<path d="M1771.23 1259.69H1452.26L1450.42 1173.66H1762.49C1849.38 1173.66 1919.81 1097.5 1919.81 1003.56C1919.81 909.614 1845.49 833.066 1758.61 833.066C1756.34 833.068 1751.61 833.072 1750.84 833.069C1781.91 831.504 1802.79 835.774 1807.4 837.42C1848.46 847.277 1885.35 873.437 1911.83 911.474C1938.31 949.511 1952.75 997.089 1952.72 1046.16C1952.71 1102.61 1933.55 1156.75 1899.46 1196.67C1865.36 1236.58 1820.76 1259.69 1771.23 1259.69Z" fill="#282974"/>
<path d="M1796.48 1257.67C1838.94 1249.41 1881.73 1221.99 1909.56 1183.55C1937.38 1145.1 1952.66 1096.35 1952.66 1045.96C1952.66 989.519 1933.51 935.388 1899.42 895.47C1865.34 855.552 1819.11 833.112 1770.9 833.084L1465.33 833.464V950.775L1309.95 712.243H1770.26C1843.07 712.243 2072.32 807.583 1977.11 1145.31C1931.62 1206.14 1864.93 1246.98 1796.48 1257.67Z" fill="#FF9200"/>
<path d="M2048 925.169C2048 1006.02 2022.59 1084.48 1977.11 1145.31C2072.32 807.583 1843.07 712.243 1770.26 712.243H1309.95L1465.33 469.799V591.017L1763.04 591.571C1838.61 591.571 1911.08 626.716 1964.52 689.277C2017.97 751.838 2047.99 836.69 2048 925.169Z" fill="#FF8100"/>
<path d="M882.663 1359.16L1038.27 1597.99L1038.04 715.899C1038.04 699.788 1050.9 686.727 1066.77 686.727H1150.52L1054.55 531.389H975.892H908.604C893.361 531.389 881.004 543.746 881.004 558.989V595.363L882.663 1359.16Z" fill="#1C125F"/>
<path d="M960.354 1478.44L882.663 1359.16L881.004 595.363V584.994V558.989C881.004 543.746 893.361 531.389 908.604 531.389H934.609H975.892H1054.55L1092.48 609.165L989.083 609.038C973.216 609.038 960.353 622.1 960.354 638.211V1478.44Z" fill="#282974"/>
<path d="M963.136 531.389H1129.2C1143.71 531.389 1158.38 536.752 1171 545.109C1183.62 553.467 1191.5 564.952 1201.55 580.024C1211.23 594.525 1453.81 976.218 1453.81 976.218C1461.3 990.939 1465.27 1007.71 1465.34 1024.81V1818.11L1354.2 1818.09C1342.47 1818.09 1331.21 1812.67 1322.92 1803.02C1314.62 1793.37 1309.96 1780.28 1309.96 1766.64V1051.32C1309.97 1043.51 1308.08 1035.86 1304.52 1029.24C1304.52 1029.24 1026.05 576.104 1021.9 569.626C1017.75 563.147 1013.37 557.285 1005.24 550.215C999.449 545.173 991.182 540.707 984.927 538.286C971.811 533.21 963.136 531.389 963.136 531.389Z" fill="#FF8100"/>
<path d="M963.136 531.39L1051.5 531.375C1066.02 531.376 1080.69 536.738 1093.31 545.096C1105.92 553.453 1113.88 564.886 1123.86 580.01C1192.35 683.848 1376.12 976.205 1376.12 976.205C1383.6 990.926 1387.58 1007.7 1387.64 1024.8V1818.09L1354.2 1818.09C1342.47 1818.09 1331.21 1812.67 1322.92 1803.02C1314.62 1793.37 1309.96 1780.29 1309.96 1766.64V1051.32C1309.97 1043.51 1308.08 1035.86 1304.52 1029.24C1304.52 1029.24 1026.05 576.105 1021.9 569.627C1017.75 563.148 1013.37 557.286 1005.24 550.216C999.449 545.174 991.182 540.708 984.927 538.288C971.811 533.212 963.136 531.39 963.136 531.39Z" fill="#FF9200"/>
<path d="M551.519 1089.65C509.064 1097.92 466.268 1125.34 438.442 1163.79C410.616 1202.23 395.341 1250.98 395.335 1301.37C395.343 1357.82 414.494 1411.95 448.577 1451.87C482.661 1491.79 528.888 1514.23 577.098 1514.26L882.667 1513.88V1396.56L1038.04 1635.1L577.739 1635.1C504.931 1635.1 275.676 1539.76 370.893 1202.02C416.378 1141.19 483.073 1100.35 551.519 1089.65Z" fill="#FF9200"/>
<path d="M299.999 1422.17C300.003 1341.32 325.407 1262.85 370.893 1202.02C275.676 1539.76 504.931 1635.1 577.739 1635.1L1038.04 1635.1L882.668 1877.55V1756.33L584.964 1755.78C509.392 1755.78 436.915 1720.63 383.474 1658.07C330.034 1595.5 300.007 1510.65 299.999 1422.17Z" fill="#FF8100"/>
<path d="M595.454 1259.7C526.11 1260.32 470.336 1316.97 470.336 1386.78C470.336 1456.97 523.556 1514.27 593.279 1514.27C591.983 1514.27 587.558 1514.27 585.507 1514.27C498.622 1514.27 428.187 1437.72 428.187 1343.77C428.187 1249.83 498.622 1173.67 585.507 1173.67H880.724V1173.66H1309.95V1259.69H895.744L895.742 1259.77L595.454 1259.7Z" fill="#282974"/>
<path d="M576.762 1087.63C527.235 1087.63 482.635 1110.74 448.537 1150.66C414.44 1190.58 395.28 1244.71 395.272 1301.17C395.239 1350.24 409.685 1397.82 436.166 1435.86C462.647 1473.9 499.537 1500.06 540.596 1509.92C545.206 1511.56 562.195 1515.83 593.271 1514.27C592.494 1514.26 587.766 1514.27 585.499 1514.27C498.614 1514.27 428.179 1437.72 428.179 1343.77C428.179 1249.83 498.614 1173.67 585.499 1173.67H897.577L897.577 1173.66H1309.95V1087.63H576.762Z" fill="#1C125F"/>
</svg>
